HIERARCHY
ROOT Hips
{
	OFFSET -0.001795 -0.223333 0.028219
	CHANNELS 6 Xposition Yposition Zposition Zrotation Yrotation Xrotation 
	JOINT LeftUpLeg
	{
		OFFSET 0.069520 -0.091406 -0.006815
		CHANNELS 3 Zrotation Yrotation Xrotation
		JOINT LeftLeg
		{
			OFFSET 0.034277 -0.375199 -0.004496
			CHANNELS 3 Zrotation Yrotation Xrotation
			JOINT LeftFoot
			{
				OFFSET -0.013596 -0.397961 -0.043693
				CHANNELS 3 Zrotation Yrotation Xrotation
				JOINT LeftToe
				{
					OFFSET 0.026358 -0.055791 0.119288
					CHANNELS 3 Zrotation Yrotation Xrotation
					End Site
					{
						OFFSET 0.000000 0.000000 0.000000
					}
				}
			}
		}
	}
	JOINT RightUpLeg
	{
		OFFSET -0.067670 -0.090522 -0.004320
		CHANNELS 3 Zrotation Yrotation Xrotation
		JOINT RightLeg
		{
			OFFSET -0.038290 -0.382569 -0.008850
			CHANNELS 3 Zrotation Yrotation Xrotation
			JOINT RightFoot
			{
				OFFSET 0.015774 -0.398415 -0.042312
				CHANNELS 3 Zrotation Yrotation Xrotation
				JOINT RightToe
				{
					OFFSET -0.025372 -0.048144 0.123348
					CHANNELS 3 Zrotation Yrotation Xrotation
					End Site
					{
						OFFSET 0.000000 0.000000 0.000000
					}
				}
			}
		}
	}
	JOINT Spine
	{
		OFFSET -0.002533 0.108963 -0.026696
		CHANNELS 3 Zrotation Yrotation Xrotation
		JOINT Spine1
		{
			OFFSET 0.005487 0.135180 0.001092
			CHANNELS 3 Zrotation Yrotation Xrotation
			JOINT Spine2
			{
				OFFSET 0.001457 0.052922 0.025425
				CHANNELS 3 Zrotation Yrotation Xrotation
				JOINT Neck
				{
					OFFSET -0.002778 0.213870 -0.042857
					CHANNELS 3 Zrotation Yrotation Xrotation
					JOINT Head
					{
						OFFSET 0.005152 0.064970 0.051349
						CHANNELS 3 Zrotation Yrotation Xrotation
						End Site
						{
							OFFSET 0.000000 0.000000 0.000000
						}
					}
				}
				JOINT LeftShoulder
				{
					OFFSET 0.078845 0.121749 -0.034090
					CHANNELS 3 Zrotation Yrotation Xrotation
					JOINT LeftArm
					{
						OFFSET 0.090977 0.030469 -0.008868
						CHANNELS 3 Zrotation Yrotation Xrotation
						JOINT LeftForeArm
						{
							OFFSET 0.259612 -0.012772 -0.027456
							CHANNELS 3 Zrotation Yrotation Xrotation
							JOINT LeftHand
							{
								OFFSET 0.249234 0.008986 -0.001171
								CHANNELS 3 Zrotation Yrotation Xrotation
								End Site
								{
									OFFSET 0.000000 0.000000 0.000000
								}
							}
						}
					}
				}
				JOINT RightShoulder
				{
					OFFSET -0.081759 0.118833 -0.038615
					CHANNELS 3 Zrotation Yrotation Xrotation
					JOINT RightArm
					{
						OFFSET -0.096012 0.032551 -0.009143
						CHANNELS 3 Zrotation Yrotation Xrotation
						JOINT RightForeArm
						{
							OFFSET -0.253742 -0.013329 -0.021401
							CHANNELS 3 Zrotation Yrotation Xrotation
							JOINT RightHand
							{
								OFFSET -0.255298 0.007772 -0.005559
								CHANNELS 3 Zrotation Yrotation Xrotation
								End Site
								{
									OFFSET 0.000000 0.000000 0.000000
								}
							}
						}
					}
				}
			}
		}
	}
}
MOTION
Frames: 16
Frame Time: 0.050000
-0.053205 0.934494 -0.017593 1.707147 40.033957 6.744493 5.317035 -0.704275 -4.564885 -0.954533 -0.035216 -5.010257 -9.413758 -11.966890 6.651459 0.000000 0.000000 0.000000 -2.758762 -0.037748 -1.741542 -1.208175 0.082345 -2.557859 0.490559 0.911224 1.579358 0.000000 0.000000 0.000000 4.019293 0.010025 -4.035724 0.601696 -0.427914 -0.284387 -2.852327 8.517451 2.522685 -1.546074 4.945245 -18.210045 0.000000 0.000000 0.000000 -0.609185 -12.027807 2.637227 1.580580 -30.745129 -3.199678 34.107680 -22.361779 -9.356397 0.000000 0.000000 0.000000 22.275822 -2.438620 5.247607 50.996833 8.320476 -2.956337 2.863472 31.705877 3.552980 0.000000 0.000000 0.000000 
-0.054751 0.935203 -0.020747 1.559578 39.351323 6.707723 5.377018 -0.703715 -4.551971 -1.007418 -0.035383 -5.342216 -9.675612 -11.956490 7.155198 0.000000 0.000000 0.000000 -2.784282 -0.007751 -2.053512 -1.173907 0.085427 -2.331353 0.597780 1.193912 1.636653 0.000000 0.000000 0.000000 3.804589 0.011327 -3.812249 0.652327 -0.441825 -0.298684 -2.676233 8.331486 2.430602 -1.353474 4.834091 -18.444326 0.000000 0.000000 0.000000 -0.266302 -11.635483 2.681652 1.801772 -31.829767 -3.430038 35.469835 -22.314860 -9.729680 0.000000 0.000000 0.000000 21.420923 -1.844086 5.231864 51.654518 8.377149 -2.729719 2.474918 31.249004 3.350576 0.000000 0.000000 0.000000 
-0.055942 0.935729 -0.023861 1.495111 38.626468 6.710202 5.343995 -0.690360 -4.457007 -1.080554 -0.029225 -5.403254 -9.453970 -11.919743 6.856603 0.000000 0.000000 0.000000 -2.912729 0.006490 -2.275371 -1.138782 0.077530 -2.393219 0.669400 1.389768 1.756007 0.000000 0.000000 0.000000 3.783507 0.008340 -3.586864 0.632289 -0.342571 -0.795902 -2.680274 8.434188 2.998871 -1.260170 4.834107 -18.706108 0.000000 0.000000 0.000000 0.053026 -11.189683 2.679637 1.476442 -32.693918 -3.519685 37.632190 -22.409328 -10.498423 0.000000 0.000000 0.000000 20.918519 -1.809263 5.087253 52.428611 8.725686 -2.473577 2.526450 31.247403 3.383307 0.000000 0.000000 0.000000 
-0.056932 0.936156 -0.026579 1.558715 37.882805 6.732150 5.355555 -0.679816 -4.336269 -1.266592 -0.027900 -5.566095 -9.549262 -11.675851 7.281719 0.000000 0.000000 0.000000 -3.064556 0.023814 -2.587347 -1.149166 0.082230 -2.300478 0.854731 1.851068 1.775442 0.000000 0.000000 0.000000 3.625475 0.003274 -3.224857 0.823466 -0.391790 -0.981428 -2.824841 8.689083 3.042224 -1.150991 4.736077 -18.449081 0.000000 0.000000 0.000000 -0.134497 -10.663130 2.475253 0.705651 -32.555689 -3.266912 40.434389 -24.132993 -12.148304 0.000000 0.000000 0.000000 20.237488 -1.864490 4.807505 53.207350 8.784089 -2.215313 2.500672 31.673100 3.458046 0.000000 0.000000 0.000000 
-0.057906 0.936388 -0.028819 1.616325 37.083388 6.725612 5.221941 -0.655389 -4.204001 -1.371150 -0.021611 -5.601210 -9.266535 -11.203095 7.244684 0.000000 0.000000 0.000000 -3.115587 0.035927 -2.696831 -1.184138 0.093156 -2.134320 0.898393 1.961765 1.703932 0.000000 0.000000 0.000000 3.591343 0.006458 -3.199220 0.749038 -0.350125 -1.002158 -2.834387 8.864065 3.370667 -0.990914 4.590233 -18.008793 0.000000 0.000000 0.000000 -0.375933 -9.947679 2.206864 -0.715532 -32.309999 -2.836638 43.451963 -26.245362 -14.184680 0.000000 0.000000 0.000000 20.111370 -1.753322 4.782924 53.737184 9.437348 -1.874829 2.116547 31.936599 3.404915 0.000000 0.000000 0.000000 
-0.059026 0.936512 -0.030714 1.538561 36.693006 6.587020 5.206306 -0.642422 -4.013637 -1.717065 -0.024667 -5.550329 -9.098006 -10.971224 7.177094 0.000000 0.000000 0.000000 -3.015786 0.055606 -2.807029 -1.239878 0.105799 -2.014054 1.045285 2.324405 1.922445 0.000000 0.000000 0.000000 3.485636 0.004465 -2.992131 0.908455 -0.366621 -1.326677 -2.938340 9.024767 3.779994 -0.816694 4.430142 -17.368611 0.000000 0.000000 0.000000 -0.612694 -9.366996 1.957003 -2.255306 -31.858819 -2.381835 45.928111 -28.511873 -16.299896 0.000000 0.000000 0.000000 19.605123 -1.888252 4.546959 54.374751 9.508821 -1.667776 2.089861 32.570233 3.517330 0.000000 0.000000 0.000000 
-0.060357 0.936781 -0.032526 1.512912 36.232655 6.488579 5.248593 -0.644768 -4.126059 -2.033005 -0.015345 -5.091620 -8.718411 -10.482779 6.973799 0.000000 0.000000 0.000000 -3.084440 0.069006 -3.046977 -1.091978 0.091316 -1.790549 1.171010 2.629946 1.801098 0.000000 0.000000 0.000000 3.551129 -0.002296 -2.777058 1.034285 -0.406490 -1.411268 -3.150218 9.228806 3.920719 -0.383029 4.146334 -16.931409 0.000000 0.000000 0.000000 -0.767555 -9.212141 1.860562 -3.994218 -31.076847 -1.861433 48.010447 -30.606539 -18.310509 0.000000 0.000000 0.000000 19.518558 -2.106374 4.375556 54.467697 9.387238 -1.682490 2.254455 33.668880 3.779942 0.000000 0.000000 0.000000 
-0.061749 0.937016 -0.034386 1.411013 36.444162 6.347560 5.503384 -0.675676 -4.346724 -2.540832 -0.023715 -4.778970 -8.245089 -9.633337 6.885738 0.000000 0.000000 0.000000 -3.034755 0.086342 -3.321026 -1.223563 0.117874 -1.603703 1.246227 2.802599 2.113682 0.000000 0.000000 0.000000 3.504690 -0.009080 -2.544205 1.154722 -0.454370 -1.448764 -3.346788 9.039849 4.004391 -0.222781 3.952988 -16.245925 0.000000 0.000000 0.000000 -0.893083 -9.036403 1.767924 -5.379922 -30.965321 -1.526416 48.847325 -32.412919 -19.681512 0.000000 0.000000 0.000000 19.384956 -2.467709 4.076223 54.785049 9.075796 -1.722618 2.398670 34.551871 4.004845 0.000000 0.000000 0.000000 
-0.063272 0.937422 -0.036334 1.420004 36.473655 6.204400 5.205942 -0.654394 -4.507747 -2.642564 -0.019608 -4.495368 -8.119689 -9.415844 6.854489 0.000000 0.000000 0.000000 -3.118268 0.091622 -3.584666 -1.172161 0.120962 -1.263076 1.201659 2.691349 2.037790 0.000000 0.000000 0.000000 3.484660 -0.016087 -2.308901 1.369037 -0.535459 -1.532312 -3.691139 9.021438 4.267478 0.338638 3.610476 -15.887731 0.000000 0.000000 0.000000 -1.250852 -9.123928 1.660341 -6.981994 -31.021022 -1.165995 49.580633 -34.648605 -21.267481 0.000000 0.000000 0.000000 19.316902 -2.882142 3.802610 55.064160 8.557788 -1.896661 2.290568 35.830838 4.254451 0.000000 0.000000 0.000000 
-0.064866 0.937538 -0.038124 1.448156 36.923672 6.189131 5.286167 -0.685685 -5.027124 -2.853448 -0.012851 -3.695021 -7.559315 -8.613848 6.553682 0.000000 0.000000 0.000000 -3.218411 0.086137 -3.788419 -1.068518 0.104456 -1.265919 1.246699 2.791054 2.170748 0.000000 0.000000 0.000000 3.387867 -0.020921 -2.138776 1.632745 -0.679213 -1.384099 -3.893771 8.712523 4.499540 0.851032 3.215844 -15.205344 0.000000 0.000000 0.000000 -1.766621 -9.399667 1.558965 -8.660826 -30.783032 -0.764232 50.724363 -37.072355 -23.152648 0.000000 0.000000 0.000000 19.258772 -3.192007 3.567398 55.489597 8.026830 -2.061797 1.733161 36.832424 4.303246 0.000000 0.000000 0.000000 
-0.066664 0.937345 -0.039892 1.349152 37.131023 6.114173 5.150396 -0.696473 -5.478202 -2.774526 -0.006589 -3.289170 -7.287925 -8.400732 6.249991 0.000000 0.000000 0.000000 -3.380659 0.074975 -3.937147 -0.695501 0.045990 -1.220335 1.008303 2.218970 2.138442 0.000000 0.000000 0.000000 3.432924 -0.026035 -2.044025 1.747345 -0.807735 -0.928305 -4.194479 8.474975 4.507201 1.538357 2.788659 -15.040867 0.000000 0.000000 0.000000 -2.426093 -9.536018 1.378226 -11.018624 -30.591297 -0.223717 53.614430 -40.851956 -26.834062 0.000000 0.000000 0.000000 19.107795 -3.514870 3.274494 56.031550 7.220791 -2.322401 1.239293 37.741720 4.353793 0.000000 0.000000 0.000000 
-0.068562 0.937146 -0.041628 1.216646 37.301549 6.215115 5.128646 -0.722453 -5.998885 -2.881915 -0.001135 -2.705513 -6.507867 -7.649776 5.517956 0.000000 0.000000 0.000000 -3.580326 0.070942 -4.289879 -0.619378 0.027444 -1.456846 1.101498 2.441218 2.362335 0.000000 0.000000 0.000000 3.602247 -0.049925 -1.678184 1.576063 -0.774431 -0.683394 -4.355271 7.957695 4.769101 2.489456 2.089505 -14.397291 0.000000 0.000000 0.000000 -4.094390 -10.223221 1.035255 -12.860953 -29.545808 0.274252 58.892140 -45.599991 -32.574585 0.000000 0.000000 0.000000 19.199880 -3.870167 2.958523 56.582825 6.215886 -2.731833 0.643649 38.982390 4.412947 0.000000 0.000000 0.000000 
-0.070560 0.937026 -0.043742 1.257742 36.875030 6.505279 4.933507 -0.754239 -6.832018 -2.900267 0.012439 -1.953500 -6.104934 -7.194044 5.244084 0.000000 0.000000 0.000000 -3.872314 0.072533 -4.771504 -0.377952 -0.011518 -1.490494 1.184949 2.642504 2.251374 0.000000 0.000000 0.000000 3.522879 -0.067062 -1.317718 1.628074 -0.839358 -0.440376 -4.812428 7.845096 5.018175 3.264580 1.677581 -14.720131 0.000000 0.000000 0.000000 -5.291816 -10.404191 0.721655 -15.836667 -29.346924 0.878316 64.874276 -50.966990 -40.016142 0.000000 0.000000 0.000000 19.327180 -4.378063 2.587049 57.170028 5.480354 -3.027691 0.224791 40.053379 4.505361 0.000000 0.000000 0.000000 
-0.072406 0.937268 -0.046165 1.070736 36.143360 6.805678 5.151396 -0.810431 -7.561482 -3.243121 0.021906 -1.562640 -5.328349 -5.941178 5.038646 0.000000 0.000000 0.000000 -4.016183 0.100224 -5.477695 -0.251688 -0.037722 -1.769625 1.634416 3.696055 2.505883 0.000000 0.000000 0.000000 3.766437 -0.113376 -0.715078 1.614514 -0.835863 -0.411859 -5.239479 7.268150 5.097952 4.165214 0.958583 -14.242883 0.000000 0.000000 0.000000 -6.793757 -11.144373 0.569607 -18.655472 -28.457357 1.440186 69.968778 -56.349988 -47.444929 0.000000 0.000000 0.000000 19.192202 -4.692394 2.149066 57.965465 4.470237 -3.392713 0.283451 41.541291 4.790701 0.000000 0.000000 0.000000 
-0.074160 0.937625 -0.049040 1.159049 35.029798 7.452561 5.131744 -0.863418 -8.408529 -3.616642 0.036411 -1.283562 -5.216920 -5.715567 5.134470 0.000000 0.000000 0.000000 -4.154195 0.144612 -6.419725 -0.372107 -0.020963 -1.888454 2.119411 4.805841 2.772397 0.000000 0.000000 0.000000 3.836118 -0.155994 -0.178758 1.670566 -0.898427 -0.176947 -5.827022 6.803502 5.454724 4.540902 0.881150 -15.313137 0.000000 0.000000 0.000000 -8.312610 -11.767390 0.447955 -21.580863 -28.366172 1.990375 72.635241 -60.782443 -52.679516 0.000000 0.000000 0.000000 18.982524 -4.897890 1.739168 58.812207 3.920072 -3.547331 0.107973 42.496454 4.862999 0.000000 0.000000 0.000000 
-0.075777 0.938066 -0.052145 0.972468 33.595639 8.149348 5.503739 -0.950174 -9.430632 -4.048218 0.053600 -1.326363 -4.576526 -4.260277 5.463291 0.000000 0.000000 0.000000 -4.230115 0.203606 -7.723636 -0.321358 -0.020681 -1.659675 3.038735 6.871894 2.969664 0.000000 0.000000 0.000000 4.011709 -0.215360 0.426838 1.739515 -0.913996 -0.253917 -6.327298 5.967219 5.759682 5.529537 0.385269 -16.379778 0.000000 0.000000 0.000000 -9.933063 -12.775514 0.571120 -23.720170 -28.907136 2.492352 68.466409 -64.438515 -51.616422 0.000000 0.000000 0.000000 19.431993 -5.366859 1.210575 58.970782 3.500793 -3.842171 0.711549 43.041511 5.124353 0.000000 0.000000 0.000000 
